<svg width="22" height="22" viewBox="0 0 22 22" fill="none" xmlns="http://www.w3.org/2000/svg">
<g clip-path="url(#clip0_310_9633)">
<path d="M2.62076 2.63724L14.1433 0.991827C14.2083 0.982499 14.2746 0.987258 14.3376 1.00578C14.4006 1.02431 14.4589 1.05617 14.5086 1.0992C14.5582 1.14223 14.598 1.19543 14.6253 1.25519C14.6526 1.31495 14.6667 1.37988 14.6667 1.44558V20.5544C14.6667 20.62 14.6526 20.6849 14.6253 20.7445C14.5981 20.8042 14.5584 20.8574 14.5089 20.9004C14.4593 20.9434 14.4011 20.9753 14.3382 20.9939C14.2753 21.0125 14.2091 21.0173 14.1442 21.0082L2.61984 19.3627C2.40133 19.3316 2.20138 19.2227 2.05673 19.056C1.91207 18.8893 1.83243 18.676 1.83243 18.4552V3.54474C1.83243 3.32402 1.91207 3.11071 2.05673 2.944C2.20138 2.77729 2.40225 2.66837 2.62076 2.63724ZM15.5833 2.74999H19.25C19.4931 2.74999 19.7263 2.84657 19.8982 3.01848C20.0701 3.19039 20.1667 3.42355 20.1667 3.66666V18.3333C20.1667 18.5764 20.0701 18.8096 19.8982 18.9815C19.7263 19.1534 19.4931 19.25 19.25 19.25H15.5833V2.74999ZM9.35001 11L11.9167 7.33333H9.71668L8.25001 9.42883L6.78334 7.33333H4.58334L7.15001 11L4.58334 14.6667H6.78334L8.25001 12.5712L9.71668 14.6667H11.9167L9.35001 11Z" fill="white"/>
</g>
<defs>
<clipPath id="clip0_310_9633">
<rect width="22" height="22" fill="white"/>
</clipPath>
</defs>
</svg>
