<svg width="23" height="22" viewBox="0 0 23 22" fill="none" xmlns="http://www.w3.org/2000/svg">
<path d="M11.4999 4.58337C14.4712 4.58337 17.078 6.73969 18.7445 8.55229C19.4842 9.35692 19.8541 9.75923 19.9789 10.5927C20.0095 10.7967 20.0095 11.2034 19.9789 11.4074C19.8541 12.2409 19.4842 12.6432 18.7445 13.4478C17.078 15.2604 14.4712 17.4167 11.4999 17.4167C8.52868 17.4167 5.92183 15.2604 4.25538 13.4478C3.51564 12.6432 3.14577 12.2409 3.02093 11.4074C2.99037 11.2034 2.99037 10.7967 3.02093 10.5927C3.14577 9.75923 3.51564 9.35692 4.25538 8.55229C5.92183 6.73969 8.52868 4.58337 11.4999 4.58337Z" stroke="#969CA6" stroke-width="1.375" stroke-linejoin="round"/>
<path d="M14.25 11C14.25 12.5188 13.0188 13.75 11.5 13.75C9.98122 13.75 8.75 12.5188 8.75 11C8.75 9.48122 9.98122 8.25 11.5 8.25C13.0188 8.25 14.25 9.48122 14.25 11Z" stroke="#969CA6" stroke-width="1.375" stroke-linejoin="round"/>
</svg>
