<svg width="296" height="48" viewBox="0 0 296 48" fill="none" xmlns="http://www.w3.org/2000/svg">
<path fill-rule="evenodd" clip-rule="evenodd" d="M15.1562 1.00012C13.8386 1.01982 12.7076 1.05986 11.7124 1.14117C9.77317 1.29961 8.43761 1.60977 7.3186 2.17993C5.24882 3.23454 3.56604 4.91733 2.51143 6.98711C1.94127 8.10611 1.63111 9.44168 1.47267 11.3809C1.31328 13.3317 1.3125 15.8042 1.3125 19.181V28.819C1.3125 32.1958 1.31328 34.6683 1.47267 36.6191C1.63111 38.5583 1.94127 39.8939 2.51143 41.0129C3.56604 43.0827 5.24882 44.7655 7.3186 45.8201C8.43761 46.3902 9.77317 46.7004 11.7124 46.8588C12.7076 46.9401 13.8386 46.9802 15.1562 46.9999V48C11.1994 47.9411 8.80528 47.6999 6.86461 46.7111C4.60667 45.5606 2.7709 43.7248 1.62042 41.4669C0.3125 38.8999 0.3125 35.5396 0.3125 28.819V19.181C0.3125 12.4604 0.3125 9.10006 1.62042 6.53312C2.7709 4.27517 4.60667 2.43941 6.86461 1.28893C8.80528 0.300108 11.1994 0.0588593 15.1562 0V1.00012Z" fill="#E9EAEE"/>
<line x1="0.5" y1="-0.5" x2="265.5" y2="-0.5" transform="matrix(1 0 0 -1 15.1562 0)" stroke="#E9EAEE" stroke-linecap="square"/>
<path d="M173.174 27.0226C173.174 26.8041 173.236 26.6288 173.36 26.497C173.492 26.3575 173.679 26.2878 173.92 26.2878C174.165 26.2878 174.355 26.3575 174.491 26.497C174.619 26.6288 174.683 26.8041 174.683 27.0226C174.683 27.2261 174.619 27.3919 174.491 27.52C174.351 27.6557 174.161 27.7235 173.92 27.7235C173.679 27.7235 173.492 27.6557 173.36 27.52C173.236 27.3957 173.174 27.2299 173.174 27.0226ZM176.855 27.0226C176.855 26.8041 176.917 26.6288 177.042 26.497C177.174 26.3575 177.36 26.2878 177.601 26.2878C177.846 26.2878 178.037 26.3575 178.172 26.497C178.3 26.6288 178.364 26.8041 178.364 27.0226C178.364 27.2261 178.3 27.3919 178.172 27.52C178.033 27.6557 177.843 27.7235 177.601 27.7235C177.36 27.7235 177.174 27.6557 177.042 27.52C176.917 27.3957 176.855 27.2299 176.855 27.0226ZM180.537 27.0226C180.537 26.8041 180.599 26.6288 180.723 26.497C180.855 26.3575 181.042 26.2878 181.283 26.2878C181.528 26.2878 181.718 26.3575 181.854 26.497C181.982 26.6288 182.046 26.8041 182.046 27.0226C182.046 27.2261 181.982 27.3919 181.854 27.52C181.714 27.6557 181.524 27.7235 181.283 27.7235C181.042 27.7235 180.855 27.6557 180.723 27.52C180.599 27.3957 180.537 27.2299 180.537 27.0226ZM194.383 25.8922V27H194.27C194.025 27 193.806 26.9812 193.614 26.9435C193.426 26.902 193.258 26.8474 193.111 26.7796C192.968 26.7117 192.842 26.6326 192.732 26.5422C192.623 26.448 192.529 26.35 192.45 26.2483C192.292 26.3726 192.131 26.4819 191.969 26.5761C191.811 26.6703 191.64 26.7494 191.455 26.8135C191.274 26.8738 191.076 26.9209 190.862 26.9548C190.647 26.9849 190.406 27 190.138 27C189.693 27 189.281 26.9096 188.9 26.7287C188.523 26.5441 188.175 26.2859 187.855 25.9543L188.493 25.0557C188.719 25.2667 188.947 25.4343 189.177 25.5587C189.407 25.683 189.635 25.7697 189.861 25.8187C190.012 25.8526 190.163 25.8696 190.313 25.8696C190.385 25.8696 190.49 25.8639 190.63 25.8526C190.773 25.8375 190.946 25.7904 191.15 25.7113C191.342 25.6359 191.498 25.5549 191.619 25.4683C191.743 25.3778 191.837 25.3006 191.902 25.2365L190.115 20.9409L191.144 20.5113C191.325 20.9522 191.489 21.3535 191.636 21.7152C191.787 22.077 191.928 22.4199 192.06 22.7439C192.195 23.068 192.327 23.3883 192.455 23.7048C192.587 24.0175 192.727 24.3454 192.874 24.6883C192.949 24.8691 193.021 25.0349 193.088 25.1857C193.16 25.3326 193.245 25.4588 193.343 25.5643C193.441 25.6661 193.563 25.7471 193.71 25.8074C193.857 25.8639 194.044 25.8922 194.27 25.8922H194.383ZM199.2 25.8922V27H199.087C198.707 27 198.39 26.9359 198.138 26.8078C197.885 26.6759 197.678 26.5064 197.516 26.2991C197.395 26.4159 197.263 26.5196 197.12 26.61C196.977 26.6967 196.807 26.7701 196.611 26.8304C196.416 26.887 196.186 26.9303 195.922 26.9604C195.662 26.9868 195.355 27 195.001 27H194.158V25.8922H195.001C195.359 25.8922 195.664 25.8639 195.916 25.8074C196.172 25.7509 196.38 25.6661 196.538 25.553C196.7 25.44 196.819 25.2987 196.894 25.1291C196.969 24.9596 197.007 24.7617 197.007 24.5357C197.007 24.3209 196.99 24.1023 196.956 23.88C196.926 23.6577 196.87 23.4033 196.787 23.117L197.849 22.8174C197.887 22.9493 197.919 23.0774 197.945 23.2017C197.972 23.3223 197.994 23.4504 198.013 23.5861C198.032 23.7217 198.049 23.8687 198.064 24.027C198.083 24.1852 198.1 24.3642 198.115 24.5639C198.126 24.7033 198.147 24.8503 198.177 25.0048C198.207 25.1593 198.256 25.3025 198.324 25.4343C198.396 25.5662 198.492 25.6755 198.612 25.7622C198.737 25.8488 198.895 25.8922 199.087 25.8922H199.2ZM196.125 28.8483L195.21 29.7639L194.283 28.8426L195.198 27.9213L196.125 28.8483ZM198.443 28.8539L197.527 29.7752L196.6 28.8483L197.516 27.9326L198.443 28.8539ZM203.181 25.8922V27H203.068C202.687 27 202.371 26.9359 202.118 26.8078C201.866 26.6759 201.659 26.5064 201.496 26.2991C201.259 26.5365 200.952 26.7136 200.575 26.8304C200.198 26.9435 199.733 27 199.179 27H198.97V25.8922H199.179C199.812 25.8922 200.272 25.7791 200.558 25.553C200.845 25.3232 200.988 24.9841 200.988 24.5357C200.988 24.3209 200.971 24.1023 200.937 23.88C200.907 23.6577 200.85 23.4033 200.767 23.117L201.83 22.8174C201.868 22.9493 201.9 23.0774 201.926 23.2017C201.952 23.3223 201.975 23.4504 201.994 23.5861C202.013 23.7217 202.03 23.8687 202.045 24.027C202.064 24.1852 202.081 24.3642 202.096 24.5639C202.107 24.7033 202.128 24.8503 202.158 25.0048C202.188 25.1593 202.237 25.3025 202.305 25.4343C202.376 25.5662 202.472 25.6755 202.593 25.7622C202.717 25.8488 202.876 25.8922 203.068 25.8922H203.181ZM201.689 20.8674L200.767 21.7887L199.84 20.8617L200.762 19.9404L201.689 20.8674ZM202.956 25.8922H203.663C203.889 25.8922 204.124 25.8903 204.369 25.8865C204.614 25.879 204.848 25.8564 205.07 25.8187C205.293 25.7772 205.496 25.7151 205.681 25.6322C205.865 25.5455 206.01 25.423 206.116 25.2648C206.24 25.0726 206.314 24.8654 206.336 24.643C206.34 24.5941 206.342 24.5451 206.342 24.4961C206.342 24.319 206.316 24.1287 206.263 23.9252C206.221 23.7707 206.118 23.5748 205.952 23.3374C205.79 23.0962 205.588 22.84 205.347 22.5687C205.106 22.2936 204.837 22.0129 204.539 21.7265C204.241 21.4401 203.938 21.1726 203.629 20.9239L203.759 19.7652L208.405 17.7757L208.84 18.8043L204.793 20.5057C204.978 20.6639 205.179 20.841 205.398 21.037C205.617 21.2329 205.833 21.4496 206.048 21.687C206.334 22.0035 206.57 22.3068 206.755 22.597C206.939 22.8833 207.082 23.1565 207.184 23.4165C207.286 23.6765 207.354 23.9214 207.388 24.1513C207.41 24.302 207.422 24.4452 207.422 24.5809C207.422 24.66 207.414 24.7693 207.399 24.9087C207.388 25.0443 207.352 25.1988 207.292 25.3722C207.235 25.5455 207.167 25.7038 207.088 25.847C206.753 26.4423 206.186 26.8135 205.387 26.9604C205.255 26.9868 205.091 27 204.895 27H202.956V25.8922ZM213.222 29.877C213.802 29.7601 214.322 29.5981 214.782 29.3909C215.242 29.1836 215.636 28.95 215.963 28.69C216.291 28.43 216.549 28.153 216.738 27.8591C216.93 27.569 217.047 27.2826 217.088 27H216.828C216.738 27 216.61 27 216.444 27C216.282 27 216.097 26.9906 215.89 26.9717C215.072 26.9228 214.467 26.6552 214.076 26.1691C213.902 25.9506 213.793 25.6981 213.748 25.4117C213.721 25.261 213.708 25.1103 213.708 24.9596C213.708 24.8164 213.723 24.6355 213.753 24.417C213.787 24.1946 213.863 23.9441 213.98 23.6652C214.096 23.3826 214.234 23.1396 214.392 22.9361C214.584 22.6987 214.792 22.5197 215.014 22.3991C215.24 22.2748 215.474 22.2126 215.715 22.2126C216.25 22.2126 216.742 22.4538 217.19 22.9361C217.348 23.1132 217.491 23.3129 217.62 23.5352C217.748 23.7575 217.857 23.9968 217.947 24.253C218.038 24.5055 218.109 24.7712 218.162 25.05C218.215 25.3251 218.245 25.6058 218.253 25.8922H218.79V27H218.168C218.055 27.5577 217.849 28.0607 217.552 28.5091C217.258 28.9613 216.9 29.3551 216.478 29.6904C216.06 30.0258 215.592 30.3009 215.076 30.5157C214.564 30.7304 214.032 30.8812 213.482 30.9678L213.222 29.877ZM215.715 23.3261C215.605 23.3261 215.502 23.3694 215.404 23.4561C215.306 23.539 215.217 23.6464 215.138 23.7783C215.063 23.9101 214.999 24.059 214.946 24.2248C214.893 24.3868 214.857 24.547 214.839 24.7052C214.827 24.7919 214.822 24.8767 214.822 24.9596C214.822 25.0274 214.827 25.1122 214.839 25.2139C214.854 25.3119 214.893 25.4004 214.957 25.4796C215.014 25.5549 215.084 25.6171 215.166 25.6661C215.253 25.7113 215.344 25.749 215.438 25.7791C215.536 25.8055 215.63 25.8262 215.72 25.8413C215.815 25.8526 215.896 25.8601 215.963 25.8639C216.152 25.8752 216.329 25.8809 216.495 25.8809C216.536 25.8809 216.615 25.8809 216.732 25.8809C216.853 25.8771 216.986 25.8696 217.133 25.8583C217.122 25.6171 217.094 25.3891 217.049 25.1743C217.003 24.9596 216.945 24.7599 216.873 24.5752C216.802 24.3906 216.721 24.2248 216.63 24.0778C216.544 23.9271 216.453 23.7971 216.359 23.6878C216.321 23.6501 216.278 23.6106 216.229 23.5691C216.184 23.5239 216.133 23.4843 216.076 23.4504C216.024 23.4128 215.967 23.3826 215.907 23.36C215.847 23.3374 215.783 23.3261 215.715 23.3261ZM218.559 25.8922H219.373C219.938 25.8922 220.475 25.8451 220.984 25.7509C221.492 25.6529 221.98 25.5248 222.448 25.3665C222.919 25.2083 223.374 25.0274 223.815 24.8239C224.256 24.6204 224.691 24.4113 225.121 24.1965C224.861 24.1061 224.612 24.0081 224.375 23.9026C224.138 23.7971 223.904 23.6897 223.674 23.5804C223.497 23.4975 223.324 23.4184 223.154 23.343C222.988 23.2639 222.826 23.1942 222.668 23.1339C222.513 23.0736 222.367 23.0265 222.227 22.9926C222.088 22.9549 221.96 22.9361 221.843 22.9361C221.688 22.9361 221.541 22.97 221.402 23.0378C221.262 23.1057 221.132 23.1923 221.012 23.2978C220.895 23.3996 220.79 23.5107 220.695 23.6313C220.601 23.7481 220.52 23.8593 220.452 23.9648C220.384 24.0665 220.332 24.1532 220.294 24.2248C220.26 24.2926 220.243 24.3284 220.243 24.3322L219.226 23.8743C219.23 23.8668 219.245 23.8348 219.271 23.7783C219.301 23.718 219.343 23.6426 219.395 23.5522C219.452 23.4617 219.518 23.3581 219.593 23.2413C219.672 23.1245 219.763 23.0058 219.864 22.8852C220.158 22.531 220.469 22.2654 220.797 22.0883C221.129 21.9112 221.477 21.8226 221.843 21.8226C222.024 21.8226 222.206 21.8433 222.391 21.8848C222.579 21.9262 222.77 21.9828 222.962 22.0543C223.154 22.1222 223.35 22.2013 223.55 22.2917C223.749 22.3822 223.951 22.4745 224.154 22.5687C224.377 22.6742 224.601 22.7778 224.827 22.8796C225.057 22.9813 225.287 23.0736 225.517 23.1565C225.747 23.2357 225.976 23.2997 226.206 23.3487C226.436 23.3977 226.668 23.4222 226.901 23.4222L227.116 24.4961C226.943 24.5714 226.771 24.6468 226.602 24.7222C226.432 24.7975 226.261 24.8786 226.088 24.9652C226.129 25.1084 226.197 25.2309 226.291 25.3326C226.389 25.4306 226.5 25.5154 226.624 25.587C226.753 25.6548 226.886 25.7094 227.026 25.7509C227.169 25.7886 227.308 25.8187 227.444 25.8413C227.58 25.8639 227.704 25.879 227.817 25.8865C227.93 25.8903 228.021 25.8922 228.088 25.8922H228.207V27H228.088C227.715 27 227.367 26.9661 227.043 26.8983C226.719 26.8267 226.427 26.7249 226.167 26.593C225.91 26.4612 225.688 26.301 225.5 26.1126C225.315 25.9204 225.176 25.7038 225.081 25.4626C224.693 25.6548 224.288 25.8432 223.866 26.0278C223.444 26.2087 222.998 26.3726 222.527 26.5196C222.059 26.6628 221.564 26.7796 221.04 26.87C220.516 26.9567 219.961 27 219.373 27H218.559V25.8922ZM224.143 29.0235L223.222 29.9448L222.295 29.0178L223.216 28.0965L224.143 29.0235ZM233.02 25.8922V27H232.907C232.527 27 232.21 26.9359 231.958 26.8078C231.705 26.6759 231.498 26.5064 231.336 26.2991C231.216 26.4159 231.084 26.5196 230.94 26.61C230.797 26.6967 230.628 26.7701 230.432 26.8304C230.236 26.887 230.006 26.9303 229.742 26.9604C229.482 26.9868 229.175 27 228.821 27H227.979V25.8922H228.821C229.179 25.8922 229.484 25.8639 229.737 25.8074C229.993 25.7509 230.2 25.6661 230.358 25.553C230.52 25.44 230.639 25.2987 230.714 25.1291C230.79 24.9596 230.827 24.7617 230.827 24.5357C230.827 24.3209 230.81 24.1023 230.777 23.88C230.746 23.6577 230.69 23.4033 230.607 23.117L231.67 22.8174C231.707 22.9493 231.739 23.0774 231.766 23.2017C231.792 23.3223 231.815 23.4504 231.834 23.5861C231.852 23.7217 231.869 23.8687 231.884 24.027C231.903 24.1852 231.92 24.3642 231.935 24.5639C231.947 24.7033 231.967 24.8503 231.997 25.0048C232.028 25.1593 232.077 25.3025 232.144 25.4343C232.216 25.5662 232.312 25.6755 232.433 25.7622C232.557 25.8488 232.715 25.8922 232.907 25.8922H233.02ZM230.375 20.7317L229.46 21.6474L228.533 20.7261L229.448 19.8048L230.375 20.7317ZM232.693 20.7374L231.777 21.6587L230.85 20.7317L231.766 19.8161L232.693 20.7374ZM232.79 25.8922H232.909C233.067 25.8922 233.22 25.8564 233.367 25.7848C233.518 25.7132 233.657 25.619 233.785 25.5022C233.917 25.3816 234.038 25.2478 234.147 25.1009C234.256 24.9501 234.352 24.7975 234.435 24.643C234.522 24.4697 234.595 24.3001 234.655 24.1343C234.716 23.9648 234.767 23.8065 234.808 23.6596C234.853 23.5088 234.889 23.3713 234.915 23.247C234.942 23.1226 234.966 23.0152 234.989 22.9248L236.074 23.2243C236.052 23.3186 236.021 23.4504 235.984 23.62C235.95 23.7896 235.916 23.9742 235.882 24.1739C235.852 24.3699 235.831 24.5696 235.82 24.773C235.816 24.8484 235.814 24.92 235.814 24.9878C235.814 25.1084 235.824 25.2384 235.842 25.3778C235.865 25.5135 235.916 25.6341 235.995 25.7396C236.078 25.8451 236.197 25.8978 236.351 25.8978C236.543 25.8978 236.715 25.847 236.865 25.7452C237.02 25.6435 237.156 25.5097 237.272 25.3439C237.389 25.1781 237.489 24.9878 237.572 24.773C237.655 24.5583 237.727 24.3397 237.787 24.1174C237.847 23.8951 237.894 23.6765 237.928 23.4617C237.966 23.2432 237.994 23.0472 238.013 22.8739L239.115 23.083C239.096 23.2149 239.072 23.3751 239.042 23.5635C239.011 23.7519 238.989 23.9497 238.974 24.157C238.959 24.3039 238.951 24.4509 238.951 24.5978C238.951 24.6581 238.953 24.7542 238.957 24.8861C238.964 25.018 238.993 25.1649 239.042 25.327C239.094 25.489 239.175 25.6209 239.285 25.7226C239.394 25.8243 239.543 25.8752 239.731 25.8752C239.912 25.8752 240.061 25.8225 240.178 25.717C240.294 25.6077 240.387 25.4664 240.455 25.293C240.526 25.1159 240.577 24.92 240.607 24.7052C240.637 24.4867 240.656 24.2681 240.664 24.0496C240.668 23.9403 240.669 23.8329 240.669 23.7274C240.669 23.6219 240.666 23.4957 240.658 23.3487C240.654 23.2017 240.649 23.0604 240.641 22.9248L241.749 22.8343C241.76 22.9587 241.772 23.0849 241.783 23.213C241.798 23.3374 241.815 23.4674 241.834 23.603C241.856 23.7387 241.883 23.8819 241.913 24.0326C241.947 24.1833 241.992 24.3435 242.049 24.513C242.199 24.9765 242.384 25.3232 242.602 25.553C242.825 25.7791 243.072 25.8922 243.343 25.8922H243.479V27H243.343C243.147 27 242.955 26.9736 242.766 26.9209C242.578 26.8643 242.399 26.7852 242.229 26.6835C242.064 26.5817 241.911 26.4593 241.772 26.3161C241.632 26.1729 241.513 26.0109 241.415 25.83C241.34 26.0071 241.246 26.1672 241.133 26.3104C241.02 26.4536 240.89 26.5761 240.743 26.6778C240.6 26.7796 240.443 26.8587 240.274 26.9152C240.104 26.9717 239.923 27 239.731 27C239.354 27 239.025 26.9039 238.742 26.7117C238.459 26.5158 238.248 26.2501 238.109 25.9148C238.007 26.073 237.892 26.22 237.764 26.3557C237.64 26.4875 237.502 26.6043 237.352 26.7061C237.205 26.8041 237.046 26.8813 236.877 26.9378C236.711 26.9906 236.536 27.017 236.351 27.017C236.174 27.017 236.003 26.9906 235.837 26.9378C235.675 26.8851 235.528 26.8097 235.396 26.7117C235.264 26.6138 235.149 26.4951 235.051 26.3557C234.953 26.2162 234.88 26.0617 234.831 25.8922C234.714 26.058 234.59 26.2087 234.458 26.3443C234.326 26.48 234.181 26.5968 234.022 26.6948C233.864 26.789 233.693 26.8643 233.508 26.9209C233.327 26.9736 233.128 27 232.909 27H232.79V25.8922ZM243.251 25.8922H244.478C244.979 25.8922 245.48 25.8451 245.981 25.7509C246.482 25.6529 246.976 25.5248 247.462 25.3665C247.948 25.2083 248.423 25.0274 248.886 24.8239C249.35 24.6204 249.796 24.4113 250.226 24.1965C249.966 24.1061 249.717 24.0081 249.48 23.9026C249.243 23.7971 249.009 23.6897 248.779 23.5804C248.602 23.4975 248.429 23.4184 248.259 23.343C248.093 23.2639 247.931 23.1942 247.773 23.1339C247.618 23.0736 247.472 23.0265 247.332 22.9926C247.193 22.9549 247.065 22.9361 246.948 22.9361C246.793 22.9361 246.646 22.97 246.507 23.0378C246.367 23.1057 246.237 23.1923 246.117 23.2978C246 23.3996 245.895 23.5107 245.8 23.6313C245.706 23.7481 245.625 23.8593 245.557 23.9648C245.489 24.0665 245.437 24.1532 245.399 24.2248C245.365 24.2926 245.348 24.3284 245.348 24.3322L244.331 23.8743C244.335 23.8668 244.35 23.8348 244.376 23.7783C244.406 23.718 244.448 23.6426 244.5 23.5522C244.557 23.4617 244.623 23.3581 244.698 23.2413C244.777 23.1245 244.868 23.0058 244.969 22.8852C245.263 22.531 245.574 22.2654 245.902 22.0883C246.234 21.9112 246.582 21.8226 246.948 21.8226C247.129 21.8226 247.311 21.8433 247.496 21.8848C247.684 21.9262 247.875 21.9828 248.067 22.0543C248.259 22.1222 248.455 22.2013 248.655 22.2917C248.854 22.3822 249.056 22.4745 249.259 22.5687C249.482 22.6742 249.706 22.7778 249.932 22.8796C250.162 22.9813 250.392 23.0736 250.622 23.1565C250.852 23.2357 251.081 23.2997 251.311 23.3487C251.541 23.3977 251.773 23.4222 252.006 23.4222L252.221 24.4961C251.957 24.6054 251.696 24.7241 251.436 24.8522C251.176 24.9765 250.904 25.1084 250.622 25.2478C250.207 25.4551 249.761 25.6623 249.282 25.8696C248.807 26.0768 248.308 26.2652 247.784 26.4348C247.264 26.6006 246.725 26.7362 246.168 26.8417C245.61 26.9472 245.047 27 244.478 27H243.251V25.8922ZM248.836 29.0122L247.914 29.9335L246.987 29.0065L247.909 28.0852L248.836 29.0122Z" fill="#C7CACF"/>
<path d="M274.285 25.3792H273.627L273.394 25.1542C274.21 24.2042 274.702 22.9709 274.702 21.6292C274.702 18.6375 272.277 16.2125 269.285 16.2125C266.294 16.2125 263.869 18.6375 263.869 21.6292C263.869 24.6209 266.294 27.0459 269.285 27.0459C270.627 27.0459 271.86 26.5542 272.81 25.7375L273.035 25.9709V26.6292L277.202 30.7875L278.444 29.5459L274.285 25.3792ZM269.285 25.3792C267.21 25.3792 265.535 23.7042 265.535 21.6292C265.535 19.5542 267.21 17.8792 269.285 17.8792C271.36 17.8792 273.035 19.5542 273.035 21.6292C273.035 23.7042 271.36 25.3792 269.285 25.3792Z" fill="#737993"/>
<path fill-rule="evenodd" clip-rule="evenodd" d="M15.1562 47C15.2226 47 15.2894 47 15.3565 47H280.956C281.023 47 281.09 47 281.156 47V48C281.09 48 281.023 48 280.956 48H15.3565C15.2894 48 15.2227 48 15.1562 48V47Z" fill="#E9EAEE"/>
<path fill-rule="evenodd" clip-rule="evenodd" d="M281.156 1.00012C282.474 1.01982 283.605 1.05986 284.6 1.14117C286.539 1.29961 287.875 1.60977 288.994 2.17993C291.064 3.23454 292.746 4.91733 293.801 6.98711C294.371 8.10611 294.681 9.44168 294.84 11.3809C294.999 13.3317 295 15.8042 295 19.181V28.819C295 32.1958 294.999 34.6683 294.84 36.6191C294.681 38.5583 294.371 39.8939 293.801 41.0129C292.746 43.0827 291.064 44.7655 288.994 45.8201C287.875 46.3902 286.539 46.7004 284.6 46.8588C283.605 46.9401 282.474 46.9802 281.156 46.9999V48C285.113 47.9411 287.507 47.6999 289.448 46.7111C291.706 45.5606 293.542 43.7248 294.692 41.4669C296 38.8999 296 35.5396 296 28.819V19.181C296 12.4604 296 9.10006 294.692 6.53312C293.542 4.27517 291.706 2.43941 289.448 1.28893C287.507 0.300108 285.113 0.0588593 281.156 0V1.00012Z" fill="#E9EAEE"/>
</svg>
