<svg width="22" height="24" viewBox="0 0 22 24" fill="none" xmlns="http://www.w3.org/2000/svg">
<path d="M5.5 10.5639H16.5M5.5 17.7444V17.7444C5.16891 17.7444 5.00337 17.7444 4.86418 17.7281C3.76359 17.5987 2.89569 16.7308 2.76636 15.6302C2.75 15.491 2.75 15.3255 2.75 14.9944V10.5639C2.75 8.76885 2.75 7.87134 3.20712 7.24217C3.35475 7.03897 3.53345 6.86028 3.73664 6.71264C4.36582 6.25552 5.26332 6.25552 7.05833 6.25552H14.9417C16.7367 6.25552 17.6342 6.25552 18.2634 6.71264C18.4666 6.86028 18.6452 7.03897 18.7929 7.24217C19.25 7.87134 19.25 8.76885 19.25 10.5639V14.9944C19.25 15.3255 19.25 15.491 19.2336 15.6302C19.1043 16.7308 18.2364 17.5987 17.1358 17.7281C16.9966 17.7444 16.8311 17.7444 16.5 17.7444V17.7444M5.5 17.7444V17.7444C5.5 18.6366 5.5 19.0827 5.64576 19.4346C5.8401 19.9038 6.21286 20.2765 6.68205 20.4709C7.03393 20.6166 7.48003 20.6166 8.37222 20.6166H13.6278C14.52 20.6166 14.9661 20.6166 15.318 20.4709C15.7871 20.2765 16.1599 19.9038 16.3542 19.4346C16.5 19.0827 16.5 18.6366 16.5 17.7444V17.7444M5.5 17.7444V17.3615C5.5 15.9254 5.5 15.2074 5.8657 14.7041C5.9838 14.5415 6.12676 14.3986 6.28931 14.2805C6.79265 13.9148 7.51066 13.9148 8.94667 13.9148H13.0533C14.4893 13.9148 15.2073 13.9148 15.7107 14.2805C15.8732 14.3986 16.0162 14.5415 16.1343 14.7041C16.5 15.2074 16.5 15.9254 16.5 17.3615V17.7444M16.5 6.25552V6.25552C16.5 5.36333 16.5 4.91724 16.3542 4.56535C16.1599 4.09616 15.7871 3.7234 15.318 3.52906C14.9661 3.3833 14.52 3.3833 13.6278 3.3833H8.37222C7.48003 3.3833 7.03393 3.3833 6.68205 3.52906C6.21286 3.7234 5.8401 4.09616 5.64576 4.56535C5.5 4.91724 5.5 5.36333 5.5 6.25552V6.25552H16.5Z" stroke="white" stroke-width="1.43611" stroke-linecap="round" stroke-linejoin="round"/>
</svg>
