<svg width="35" height="48" viewBox="0 0 35 48" fill="none" xmlns="http://www.w3.org/2000/svg">
<path d="M26.6666 26.2H23.9166V27.3H26.6666V26.2ZM23.9166 26.2H23.4583V27.3H23.9166V26.2ZM23.4583 30.05H24.375V28.95H23.4583V30.05ZM24.375 31.7H23.9166V32.8H24.375V31.7ZM23.9166 31.7H21.1666V32.8H23.9166V31.7ZM25.2 30.875C25.2 31.3307 24.8306 31.7 24.375 31.7V32.8C25.4381 32.8 26.3 31.9382 26.3 30.875H25.2ZM24.375 30.05C24.8306 30.05 25.2 30.4194 25.2 30.875H26.3C26.3 29.8119 25.4381 28.95 24.375 28.95V30.05ZM21.5333 28.125C21.5333 29.1882 22.3951 30.05 23.4583 30.05V28.95C23.0027 28.95 22.6333 28.5807 22.6333 28.125H21.5333ZM23.4583 26.2C22.3951 26.2 21.5333 27.0619 21.5333 28.125H22.6333C22.6333 27.6694 23.0027 27.3 23.4583 27.3V26.2ZM24.4666 26.75V24.9167H23.3666V26.75H24.4666ZM23.3666 32.25V34.0834H24.4666V32.25H23.3666ZM13.8333 15.3834H21.1666V14.2834H13.8333V15.3834ZM19.3333 32.6167H13.8333V33.7167H19.3333V32.6167ZM10.7166 29.5V18.5H9.61663V29.5H10.7166ZM13.8333 32.6167C12.9535 32.6167 12.349 32.6155 11.8949 32.5545C11.4567 32.4956 11.2418 32.3901 11.0925 32.2408L10.3147 33.0186C10.7024 33.4064 11.1881 33.5694 11.7483 33.6447C12.2928 33.7179 12.9846 33.7167 13.8333 33.7167V32.6167ZM9.61663 29.5C9.61663 30.3487 9.61546 31.0406 9.68865 31.585C9.76397 32.1452 9.92698 32.6309 10.3147 33.0186L11.0925 32.2408C10.9432 32.0916 10.8378 31.8767 10.7788 31.4384C10.7178 30.9843 10.7166 30.3798 10.7166 29.5H9.61663ZM21.1666 15.3834C22.0464 15.3834 22.6509 15.3845 23.105 15.4456C23.5433 15.5045 23.7582 15.61 23.9074 15.7593L24.6852 14.9814C24.2975 14.5937 23.8118 14.4307 23.2516 14.3554C22.7072 14.2822 22.0153 14.2834 21.1666 14.2834V15.3834ZM25.3833 18.5C25.3833 17.6513 25.3845 16.9595 25.3113 16.4151C25.2359 15.8549 25.0729 15.3691 24.6852 14.9814L23.9074 15.7593C24.0567 15.9085 24.1622 16.1234 24.2211 16.5617C24.2821 17.0157 24.2833 17.6203 24.2833 18.5H25.3833ZM13.8333 14.2834C12.9846 14.2834 12.2928 14.2822 11.7483 14.3554C11.1881 14.4307 10.7024 14.5937 10.3147 14.9814L11.0925 15.7593C11.2418 15.61 11.4567 15.5045 11.8949 15.4456C12.349 15.3845 12.9535 15.3834 13.8333 15.3834V14.2834ZM10.7166 18.5C10.7166 17.6203 10.7178 17.0157 10.7788 16.5617C10.8378 16.1234 10.9432 15.9085 11.0925 15.7593L10.3147 14.9814C9.92698 15.3691 9.76397 15.8549 9.68865 16.4151C9.61546 16.9595 9.61663 17.6513 9.61663 18.5H10.7166ZM24.2833 18.5V23.0834H25.3833V18.5H24.2833ZM12.9166 19.05H20.25V17.95H12.9166V19.05ZM12.9166 22.7167H20.25V21.6167H12.9166V22.7167ZM12.9166 26.3834H18.4166V25.2834H12.9166V26.3834Z" fill="#969CA6"/>
</svg>
