<svg width="21" height="21" viewBox="0 0 21 21" fill="none" xmlns="http://www.w3.org/2000/svg">
<path d="M13.2854 12.3792H12.6271L12.3938 12.1542C13.2104 11.2042 13.7021 9.97086 13.7021 8.62919C13.7021 5.63752 11.2771 3.21252 8.28544 3.21252C5.29377 3.21252 2.86877 5.63752 2.86877 8.62919C2.86877 11.6209 5.29377 14.0459 8.28544 14.0459C9.62711 14.0459 10.8604 13.5542 11.8104 12.7375L12.0354 12.9709V13.6292L16.2021 17.7875L17.4438 16.5459L13.2854 12.3792ZM8.28544 12.3792C6.21044 12.3792 4.53544 10.7042 4.53544 8.62919C4.53544 6.55419 6.21044 4.87919 8.28544 4.87919C10.3604 4.87919 12.0354 6.55419 12.0354 8.62919C12.0354 10.7042 10.3604 12.3792 8.28544 12.3792Z" fill="#737993"/>
</svg>
