<svg width="37" height="48" viewBox="0 0 37 48" fill="none" xmlns="http://www.w3.org/2000/svg">
<path d="M18.5 17.5834C21.4713 17.5834 24.0781 19.7397 25.7446 21.5523C26.4843 22.3569 26.8542 22.7592 26.979 23.5927C27.0096 23.7967 27.0096 24.2034 26.979 24.4074C26.8542 25.2409 26.4843 25.6432 25.7446 26.4478C24.0781 28.2604 21.4713 30.4167 18.5 30.4167C15.5288 30.4167 12.922 28.2604 11.2555 26.4478C10.5158 25.6432 10.1459 25.2409 10.0211 24.4074C9.99049 24.2034 9.99049 23.7967 10.0211 23.5927C10.1459 22.7592 10.5158 22.3569 11.2555 21.5523C12.922 19.7397 15.5288 17.5834 18.5 17.5834Z" stroke="#969CA6" stroke-width="1.375" stroke-linejoin="round"/>
<path d="M21.25 24C21.25 25.5188 20.0188 26.75 18.5 26.75C16.9812 26.75 15.75 25.5188 15.75 24C15.75 22.4812 16.9812 21.25 18.5 21.25C20.0188 21.25 21.25 22.4812 21.25 24Z" stroke="#969CA6" stroke-width="1.375" stroke-linejoin="round"/>
</svg>
